<svg width="59" height="31" viewBox="0 0 59 31" fill="none" xmlns="http://www.w3.org/2000/svg">
<path fill-rule="evenodd" clip-rule="evenodd" d="M50.5951 4.21392C47.9751 3.36767 45.5863 4.07267 43.7938 6.19267C42.0001 4.07017 39.6113 3.36892 36.9938 4.21392C33.6851 5.27892 31.6213 8.26767 31.6063 12.0127C31.5763 18.4302 37.7526 23.4577 43.5413 26.0227L43.7951 26.1352L44.0488 26.0227C49.8388 23.4577 56.0126 18.4302 55.9813 12.0127C55.9663 8.26767 53.9026 5.27892 50.5951 4.21392Z" fill="black"/>
<path d="M12.4812 4.29735C13.6441 2.40863 16.3837 2.39129 17.5704 4.26515L20.4557 8.82129C20.693 9.196 21.0104 9.51342 21.3851 9.75072L25.9413 12.6361C27.8151 13.8228 27.7978 16.5623 25.9091 17.7252L21.4172 20.4908C21.0219 20.7342 20.6884 21.0661 20.4431 21.4603L17.5831 26.0559C16.4003 27.9564 13.6281 27.9389 12.4693 26.0238L9.72763 21.4925C9.47661 21.0776 9.12877 20.7298 8.71391 20.4788L4.18266 17.7371C2.26748 16.5784 2.25007 13.8061 4.15055 12.6234L8.74612 9.76336C9.14031 9.51803 9.47219 9.18456 9.71562 8.78919L12.4812 4.29735Z" fill="black"/>
</svg>
